<svg xmlns="http://www.w3.org/2000/svg" version="1.1" xmlns:xlink="http://www.w3.org/1999/xlink" width="512" height="512" x="0" y="0" viewBox="0 0 24 24" style="enable-background:new 0 0 512 512" xml:space="preserve" class=""><g><path fill="#000000" fill-rule="evenodd" d="M12.048 4.526a.25.25 0 0 0-.224 0L3.956 8.461a.25.25 0 0 0 0 .447l7.868 3.934a.25.25 0 0 0 .224 0l7.869-3.934a.25.25 0 0 0 0-.447zm-.894-1.341a1.75 1.75 0 0 1 1.565 0l7.868 3.934c1.29.645 1.29 2.486 0 3.13l-7.868 3.935a1.75 1.75 0 0 1-1.565 0L3.285 10.25c-1.29-.645-1.29-2.486 0-3.131zm-9.075 9.298a.75.75 0 0 1 1.007-.336l8.738 4.37a.25.25 0 0 0 .224 0l8.739-4.37a.75.75 0 1 1 .67 1.342l-8.738 4.37a1.75 1.75 0 0 1-1.565 0l-8.74-4.37a.75.75 0 0 1-.335-1.006zm1.007 3.339a.75.75 0 0 0-.671 1.341l8.739 4.37a1.75 1.75 0 0 0 1.565 0l8.739-4.37a.75.75 0 0 0-.671-1.341l-8.74 4.369a.25.25 0 0 1-.223 0z" clip-rule="evenodd" opacity="1" data-original="#000000"></path></g></svg>