<svg xmlns="http://www.w3.org/2000/svg" version="1.1" xmlns:xlink="http://www.w3.org/1999/xlink" width="512" height="512" x="0" y="0" viewBox="0 0 64 64" style="enable-background:new 0 0 512 512" xml:space="preserve" class=""><g><path d="M32 61a1 1 0 0 1-1-1c0-1.1-.25-27-20-27a1 1 0 0 1 0-2C30.75 31 31 5.1 31 4a1 1 0 0 1 2 0c0 1.1.25 27 20 27a1 1 0 0 1 0 2c-19.75 0-20 25.9-20 27a1 1 0 0 1-1 1zM17.528 32C26.788 35.076 30.507 44.621 32 51.717c1.493-7.1 5.212-16.641 14.472-19.717C37.212 28.924 33.493 19.379 32 12.283 30.507 19.379 26.788 28.924 17.528 32zM53 28a1 1 0 0 1-1-1c0-.11-.1-11-7-11a1 1 0 0 1 0-2c6.9 0 7-10.891 7-11a1 1 0 0 1 2 0c0 .11.1 11 7 11a1 1 0 0 1 0 2c-6.9 0-7 10.891-7 11a1 1 0 0 1-1 1zm-4.192-13A10.36 10.36 0 0 1 53 20.822 10.36 10.36 0 0 1 57.192 15 10.36 10.36 0 0 1 53 9.178 10.36 10.36 0 0 1 48.808 15zM11 62a1 1 0 0 1-1-1c0-.11-.1-11-7-11a1 1 0 0 1 0-2c6.9 0 7-10.891 7-11a1 1 0 0 1 2 0c0 .11.1 11 7 11a1 1 0 0 1 0 2c-6.9 0-7 10.891-7 11a1 1 0 0 1-1 1zM6.808 49A10.36 10.36 0 0 1 11 54.822 10.36 10.36 0 0 1 15.192 49 10.36 10.36 0 0 1 11 43.178 10.36 10.36 0 0 1 6.808 49z" fill="#000000" opacity="1" data-original="#000000" class=""></path></g></svg>